<svg xmlns="http://www.w3.org/2000/svg" width="16" height="16" viewBox="0 0 16 16" fill="none"><path d="M6.00016 14.6667H10.0002C13.3335 14.6667 14.6668 13.3333 14.6668 9.99999V5.99999C14.6668 2.66666 13.3335 1.33333 10.0002 1.33333H6.00016C2.66683 1.33333 1.3335 2.66666 1.3335 5.99999V9.99999C1.3335 13.3333 2.66683 14.6667 6.00016 14.6667Z" stroke="#2C2C2C" stroke-linecap="round" stroke-linejoin="round"></path><path d="M12.2533 10.18V5.05332C12.2533 4.53999 11.8399 4.16666 11.3333 4.20666H11.3066C10.4133 4.27999 9.05993 4.74 8.29993 5.21333L8.2266 5.26001C8.1066 5.33334 7.8999 5.33334 7.77323 5.26001L7.66659 5.19333C6.91325 4.72 5.55992 4.27332 4.66659 4.19999C4.15992 4.15999 3.74658 4.54 3.74658 5.04667V10.18C3.74658 10.5867 4.07991 10.9733 4.48657 11.02L4.60657 11.04C5.52657 11.16 6.95327 11.6333 7.7666 12.08L7.78658 12.0867C7.89991 12.1533 8.08657 12.1533 8.19324 12.0867C9.00657 11.6333 10.4399 11.1667 11.3666 11.04L11.5066 11.02C11.9199 10.9733 12.2533 10.5933 12.2533 10.18Z" stroke="#2C2C2C" stroke-linecap="round" stroke-linejoin="round"></path><path d="M8 5.39993V11.7733" stroke="#2C2C2C" stroke-linecap="round" stroke-linejoin="round"></path></svg>