<svg xmlns="http://www.w3.org/2000/svg" width="19" height="18" viewBox="0 0 19 18" fill="none"><path d="M16.9711 12.555V3.50252C16.9711 2.60252 16.2361 1.93502 15.3436 2.01002H15.2986C13.7236 2.14502 11.3311 2.94752 9.99607 3.78752L9.86857 3.87002C9.65107 4.00502 9.29107 4.00502 9.07357 3.87002L8.88607 3.75752C7.55107 2.92502 5.16607 2.13002 3.59107 2.00252C2.69857 1.92752 1.97107 2.60252 1.97107 3.49502V12.555C1.97107 13.275 2.55607 13.95 3.27607 14.04L3.49357 14.07C5.12107 14.2875 7.63357 15.1125 9.07357 15.9L9.10357 15.915C9.30607 16.0275 9.62857 16.0275 9.82357 15.915C11.2636 15.12 13.7836 14.2875 15.4186 14.07L15.6661 14.04C16.3861 13.95 16.9711 13.275 16.9711 12.555Z" stroke="white" stroke-width="1.5" stroke-linecap="round" stroke-linejoin="round"></path><path d="M9.47107 4.11755V15.3676" stroke="white" stroke-width="1.5" stroke-linecap="round" stroke-linejoin="round"></path><path d="M6.28357 6.36755H4.59607" stroke="white" stroke-width="1.5" stroke-linecap="round" stroke-linejoin="round"></path><path d="M6.84607 8.61755H4.59607" stroke="white" stroke-width="1.5" stroke-linecap="round" stroke-linejoin="round"></path></svg>