<svg xmlns="http://www.w3.org/2000/svg" width="19" height="18" viewBox="0 0 19 18" fill="none"><path d="M11.75 13.5H16.25M16.25 8.625V6.6C16.25 5.33988 16.25 4.70982 16.0048 4.22852C15.789 3.80516 15.4448 3.46095 15.0215 3.24524C14.5402 3 13.9101 3 12.65 3H6.35C5.08988 3 4.45982 3 3.97852 3.24524C3.55516 3.46095 3.21095 3.80516 2.99524 4.22852C2.75 4.70982 2.75 5.33988 2.75 6.6V12.9C2.75 14.1601 2.75 14.7902 2.99524 15.2715C3.21095 15.6948 3.55516 16.039 3.97852 16.2548C4.45982 16.5 5.08988 16.5 6.35 16.5H9.875M16.25 7.5H2.75M12.5 1.5V4.5M6.5 1.5V4.5" stroke="#FF7160" stroke-width="1.3" stroke-linecap="round" stroke-linejoin="round"></path></svg>