<svg xmlns="http://www.w3.org/2000/svg" width="36" height="36" viewBox="0 0 36 36" fill="none"><path d="M32.3507 27.1113C32.3507 27.6294 32.2355 28.162 31.9908 28.6802C31.7461 29.1984 31.4294 29.6878 31.012 30.1484C30.3067 30.9257 29.5294 31.487 28.6514 31.8469C27.7878 32.2067 26.8522 32.3938 25.8446 32.3938C24.3764 32.3938 22.8075 32.0484 21.1522 31.3431C19.4969 30.6378 17.8416 29.6878 16.2007 28.4931C14.5454 27.284 12.9764 25.9454 11.4794 24.4628C9.99687 22.9658 8.65823 21.3969 7.46353 19.756C6.28323 18.115 5.33323 16.4741 4.64232 14.8476C3.95141 13.2067 3.60596 11.6378 3.60596 10.1408C3.60596 9.16202 3.77868 8.22641 4.12414 7.36278C4.46959 6.48475 5.01656 5.67868 5.77944 4.95899C6.70065 4.05217 7.70823 3.60596 8.77338 3.60596C9.17641 3.60596 9.57944 3.69232 9.93929 3.86505C10.3135 4.03778 10.6446 4.29687 10.9037 4.67111L14.2431 9.37793C14.5022 9.73778 14.6893 10.0688 14.8188 10.3855C14.9484 10.6878 15.0204 10.99 15.0204 11.2635C15.0204 11.609 14.9196 11.9544 14.7181 12.2855C14.531 12.6166 14.2575 12.962 13.912 13.3075L12.8181 14.4446C12.6597 14.6029 12.5878 14.79 12.5878 15.0204C12.5878 15.1355 12.6022 15.2363 12.631 15.3514C12.6741 15.4666 12.7173 15.5529 12.7461 15.6393C13.0052 16.1143 13.4514 16.7332 14.0847 17.4817C14.7325 18.2302 15.4234 18.9931 16.1719 19.756C16.9491 20.5188 17.6976 21.2241 18.4605 21.8719C19.209 22.5052 19.8279 22.937 20.3173 23.1961C20.3893 23.2249 20.4757 23.2681 20.5764 23.3113C20.6916 23.3544 20.8067 23.3688 20.9363 23.3688C21.181 23.3688 21.3681 23.2825 21.5264 23.1241L22.6204 22.0446C22.9802 21.6847 23.3257 21.4113 23.6567 21.2385C23.9878 21.037 24.3188 20.9363 24.6787 20.9363C24.9522 20.9363 25.24 20.9938 25.5567 21.1234C25.8734 21.2529 26.2044 21.4401 26.5643 21.6847L31.3287 25.0673C31.7029 25.3264 31.962 25.6287 32.1204 25.9885C32.2643 26.3484 32.3507 26.7082 32.3507 27.1113Z" fill="white"></path><path d="M27.3558 13.6819C27.3558 12.8183 26.6792 11.494 25.6717 10.4145C24.7504 9.42132 23.527 8.64404 22.3179 8.64404" stroke="white" stroke-width="1.5" stroke-linecap="round" stroke-linejoin="round"></path><path d="M32.3936 13.6817C32.3936 8.11126 27.8883 3.60596 22.3179 3.60596" stroke="white" stroke-width="1.5" stroke-linecap="round" stroke-linejoin="round"></path></svg>