<svg xmlns="http://www.w3.org/2000/svg" width="19" height="18" viewBox="0 0 19 18" fill="none"><g clip-path="url(#clip0_242_5892)"><path d="M6.77893 9L8.27893 10.5L11.6539 7.125M6.93036 15.4507C7.17617 15.4182 7.42448 15.4848 7.6203 15.6356L8.52272 16.3281C8.82103 16.5573 9.236 16.5573 9.53347 16.3281L10.4701 15.609C10.645 15.4748 10.8659 15.4157 11.0842 15.4448L12.2557 15.599C12.6282 15.6481 12.9874 15.4407 13.1315 15.0932L13.5823 14.0032C13.6665 13.799 13.8281 13.6374 14.0323 13.5532L15.1222 13.1024C15.4696 12.9591 15.6771 12.5991 15.628 12.2266L15.4796 11.0974C15.4471 10.8516 15.5138 10.6033 15.6646 10.4075L16.3571 9.50499C16.5862 9.20666 16.5862 8.79167 16.3571 8.49418L15.638 7.55754C15.5038 7.38255 15.4446 7.16172 15.4738 6.94339L15.628 5.77176C15.6771 5.39927 15.4696 5.04011 15.1222 4.89595L14.0323 4.44513C13.8281 4.36096 13.6665 4.1993 13.5823 3.99514L13.1315 2.90517C12.9882 2.55768 12.6282 2.35018 12.2557 2.39935L11.0842 2.55351C10.8659 2.58351 10.645 2.52435 10.4709 2.39102L9.53431 1.67187C9.236 1.44271 8.82103 1.44271 8.52356 1.67187L7.58697 2.39102C7.41198 2.52435 7.19117 2.58351 6.97285 2.55518L5.80128 2.40102C5.42881 2.35185 5.06968 2.55935 4.92552 2.90684L4.47556 3.99681C4.39057 4.20013 4.22891 4.3618 4.0256 4.44679L2.93569 4.89678C2.58822 5.04094 2.38073 5.4001 2.4299 5.77259L2.58405 6.94422C2.61238 7.16255 2.55322 7.38338 2.4199 7.55754L1.70079 8.49418C1.47164 8.79251 1.47164 9.20749 1.70079 9.50499L2.4199 10.4416C2.55405 10.6166 2.61322 10.8374 2.58405 11.0558L2.4299 12.2274C2.38073 12.5999 2.58822 12.9591 2.93569 13.1032L4.0256 13.554C4.22975 13.6382 4.3914 13.7999 4.47556 14.004L4.92636 15.094C5.06968 15.4415 5.42965 15.649 5.80212 15.5998L6.93036 15.4507Z" stroke="white" stroke-width="1.5" stroke-linecap="round" stroke-linejoin="round"></path></g><defs><clipPath id="clip0_242_5892"><rect width="18" height="18" fill="white" transform="translate(0.0289307)"></rect></clipPath></defs></svg>