<svg xmlns="http://www.w3.org/2000/svg" width="70" height="30" viewBox="0 0 70 30" fill="none"><rect x="0.5" y="0.5" width="68.4557" height="29" rx="7.5" fill="#FF7160" fill-opacity="0.2"></rect><rect x="0.5" y="0.5" width="68.4557" height="29" rx="7.5" stroke="#FF7160"></rect><path d="M25.728 16.5C25.728 19.3284 25.728 20.7426 24.7944 21.6213C23.8608 22.5 22.3582 22.5 19.353 22.5L18.7735 22.5C16.3276 22.5 15.1046 22.5 14.2553 21.9016C14.012 21.7302 13.796 21.5269 13.6138 21.2978C12.978 20.4985 12.978 19.3475 12.978 17.0455L12.978 15.1364C12.978 12.914 12.978 11.8028 13.3297 10.9153C13.8951 9.48857 15.0909 8.36316 16.6068 7.83101C17.5497 7.5 18.7304 7.5 21.0917 7.5C22.441 7.5 23.1156 7.5 23.6544 7.68915C24.5207 7.99324 25.204 8.63632 25.5271 9.45161C25.728 9.95874 25.728 10.5937 25.728 11.8636L25.728 16.5Z" fill="#FF7160" fill-opacity="0.3"></path><path d="M13.3284 10.9137C13.0271 11.6741 12.9839 12.5987 12.9777 14.2458C13.2299 13.62 14.4054 12.3734 17.1017 12.3734C17.3278 12.3734 17.9208 12.146 17.8901 10.9137C17.8775 9.79188 18.2894 7.56456 20.0238 7.49984C18.3498 7.50723 17.3944 7.55246 16.6055 7.82942C15.0895 8.36157 13.8938 9.48697 13.3284 10.9137Z" fill="white"></path><path d="M15.978 19.5V17.625M15.978 17.625V16.5C15.978 16.1464 15.978 15.9697 16.0934 15.8598C16.2087 15.75 16.3943 15.75 16.7655 15.75H17.2905C17.8342 15.75 18.2749 16.1697 18.2749 16.6875C18.2749 17.2053 17.8342 17.625 17.2905 17.625H15.978ZM26.478 15.75H25.4937C24.8749 15.75 24.5656 15.75 24.3734 15.9331C24.1812 16.1161 24.1812 16.4107 24.1812 17V17.625M24.1812 19.5V17.625M24.1812 17.625H25.8218M22.5405 17.625C22.5405 18.6605 21.6591 19.5 20.5718 19.5C20.3264 19.5 20.2038 19.5 20.1124 19.4498C19.8936 19.3295 19.9155 19.086 19.9155 18.875V16.375C19.9155 16.164 19.8936 15.9205 20.1124 15.8002C20.2038 15.75 20.3264 15.75 20.5718 15.75C21.6591 15.75 22.5405 16.5895 22.5405 17.625Z" stroke="#FF7160" stroke-width="1.3" stroke-linecap="round" stroke-linejoin="round"></path><path d="M21.978 22.5H18.7735C16.3276 22.5 15.1046 22.5 14.2553 21.9016C14.012 21.7302 13.796 21.5269 13.6138 21.2978C12.978 20.4985 12.978 19.3475 12.978 17.0455V15.1364C12.978 12.914 12.978 11.8028 13.3297 10.9153C13.8951 9.48857 15.0909 8.36316 16.6068 7.83101C17.5497 7.5 18.7304 7.5 21.0917 7.5C22.441 7.5 23.1156 7.5 23.6544 7.68915C24.5207 7.99324 25.204 8.63632 25.5271 9.45161C25.728 9.95874 25.728 10.5937 25.728 11.8636V13.5" stroke="#FF7160" stroke-width="1.3" stroke-linecap="round" stroke-linejoin="round"></path><path d="M12.978 15C12.978 13.6193 14.0973 12.5 15.478 12.5C15.9774 12.5 16.5661 12.5875 17.0516 12.4574C17.4829 12.3418 17.8199 12.0049 17.9354 11.5735C18.0655 11.088 17.978 10.4993 17.978 10C17.978 8.61929 19.0973 7.5 20.478 7.5" stroke="#FF7160" stroke-width="1.3" stroke-linecap="round" stroke-linejoin="round"></path><path d="M34.1677 19.5V10.608H38.1637C40.4077 10.608 41.3077 11.532 41.3077 13.356C41.3077 15.192 40.4317 16.284 38.1277 16.284H35.3557V19.5H34.1677ZM35.3557 15.156H38.1637C39.4357 15.156 40.0957 14.7 40.0957 13.416C40.0957 12.108 39.4597 11.736 38.1397 11.736H35.3557V15.156ZM42.8044 19.5V10.608H45.7804C49.1644 10.608 50.4484 11.592 50.4484 15.048C50.4484 18.444 49.0444 19.5 45.6484 19.5H42.8044ZM44.0164 18.384H45.7084C48.4084 18.384 49.2244 17.496 49.2244 15.048C49.2244 12.564 48.5404 11.76 45.7924 11.76H44.0164V18.384ZM51.9333 19.5V10.608H57.8493V11.772H53.1453V14.448H57.7413V15.6H53.1453V19.5H51.9333Z" fill="#2C2C2C"></path></svg>