<svg xmlns="http://www.w3.org/2000/svg" width="81" height="30" viewBox="0 0 81 30" fill="none"><rect x="0.5" y="0.5" width="80" height="29" rx="7.5" fill="#157FFF" fill-opacity="0.2"></rect><rect x="0.5" y="0.5" width="80" height="29" rx="7.5" stroke="#157FFF"></rect><path d="M11.5566 18.8386C11.2878 17.7016 11.1534 17.1331 11.3294 16.695C11.4389 16.4225 11.6266 16.1877 11.8693 16.0198C12.2594 15.75 12.8483 15.75 14.0262 15.75H18.9738C20.1517 15.75 20.7406 15.75 21.1307 16.0198C21.3734 16.1877 21.5611 16.4225 21.6706 16.695C21.8466 17.1331 21.7122 17.7016 21.4434 18.8386C21.1786 19.9587 21.0462 20.5188 20.7155 20.9212C20.5075 21.1743 20.2464 21.3796 19.9503 21.5226C19.4797 21.75 18.8995 21.75 17.7391 21.75H15.2609C14.1005 21.75 13.5203 21.75 13.0497 21.5226C12.7536 21.3796 12.4925 21.1743 12.2845 20.9212C11.9538 20.5188 11.8214 19.9587 11.5566 18.8386Z" fill="#157FFF" fill-opacity="0.4"></path><path d="M18 9.75C18 10.5784 17.3284 11.25 16.5 11.25C15.6716 11.25 15 10.5784 15 9.75C15 8.92157 15.6716 8.25 16.5 8.25C17.3284 8.25 18 8.92157 18 9.75Z" fill="white"></path><path d="M11.5566 18.8386C11.2878 17.7016 11.1534 17.1331 11.3294 16.695C11.4389 16.4225 11.6266 16.1877 11.8693 16.0198C12.2594 15.75 12.8483 15.75 14.0262 15.75H18.9738C20.1517 15.75 20.7406 15.75 21.1307 16.0198C21.3734 16.1877 21.5611 16.4225 21.6706 16.695C21.8466 17.1331 21.7122 17.7016 21.4434 18.8386C21.1786 19.9587 21.0462 20.5188 20.7155 20.9212C20.5075 21.1743 20.2464 21.3796 19.9503 21.5226C19.4797 21.75 18.8995 21.75 17.7391 21.75H15.2609C14.1005 21.75 13.5203 21.75 13.0497 21.5226C12.7536 21.3796 12.4925 21.1743 12.2845 20.9212C11.9538 20.5188 11.8214 19.9587 11.5566 18.8386Z" stroke="#157FFF" stroke-width="1.3"></path><path d="M9.75 21.75H23.25" stroke="#157FFF" stroke-width="1.3" stroke-linecap="round"></path><path d="M15.75 18H17.25" stroke="#157FFF" stroke-width="1.3" stroke-linecap="round"></path><path d="M13.5 14.25C14.8788 12.3035 18.0891 12.1972 19.5 14.25" stroke="#157FFF" stroke-width="1.3" stroke-linecap="round" stroke-linejoin="round"></path><path d="M18 9.75C18 10.5784 17.3284 11.25 16.5 11.25C15.6716 11.25 15 10.5784 15 9.75C15 8.92157 15.6716 8.25 16.5 8.25C17.3284 8.25 18 8.92157 18 9.75Z" stroke="#157FFF" stroke-width="1.3"></path><path d="M30.508 19.5V10.608H36.592V11.772H31.72V14.328H36.472V15.48H31.72V18.384H36.64V19.5H30.508ZM37.9041 16.284V15.192H42.0681V16.284H37.9041ZM43.6799 19.5V10.608H47.6039C49.6799 10.608 50.5799 11.304 50.5799 12.804C50.5799 13.836 50.2679 14.58 49.4639 14.832C50.4719 15.084 50.8079 15.792 50.8079 17.04C50.8079 18.888 49.6919 19.5 47.5319 19.5H43.6799ZM44.8679 18.408H47.6639C48.9839 18.408 49.5839 17.988 49.5839 16.932C49.5839 15.912 48.9959 15.492 47.6399 15.492H44.8679V18.408ZM44.8679 14.364H47.6399C48.9959 14.364 49.3559 13.8 49.3559 12.972C49.3559 12.144 48.8759 11.712 47.6399 11.712H44.8679V14.364ZM55.1014 19.632C52.7374 19.632 51.8134 18.432 51.8134 16.152C51.8134 13.872 52.7374 12.672 55.1014 12.672C57.4654 12.672 58.4014 13.872 58.4014 16.152C58.4014 18.432 57.4654 19.632 55.1014 19.632ZM55.1014 18.576C56.6734 18.576 57.2134 17.712 57.2134 16.176C57.2134 14.64 56.6734 13.788 55.1014 13.788C53.5294 13.788 52.9894 14.64 52.9894 16.176C52.9894 17.712 53.5294 18.576 55.1014 18.576ZM62.7655 19.632C60.4015 19.632 59.4775 18.432 59.4775 16.152C59.4775 13.872 60.4015 12.672 62.7655 12.672C65.1295 12.672 66.0655 13.872 66.0655 16.152C66.0655 18.432 65.1295 19.632 62.7655 19.632ZM62.7655 18.576C64.3375 18.576 64.8775 17.712 64.8775 16.176C64.8775 14.64 64.3375 13.788 62.7655 13.788C61.1935 13.788 60.6535 14.64 60.6535 16.176C60.6535 17.712 61.1935 18.576 62.7655 18.576ZM67.4656 19.5V10.188H68.6176V16.26L71.5696 12.828H72.8656L70.5016 15.6L73.1056 19.5H71.8096L69.7216 16.452L68.6176 17.712V19.5H67.4656Z" fill="#2C2C2C"></path></svg>