<svg xmlns="http://www.w3.org/2000/svg" width="81" height="30" viewBox="0 0 81 30" fill="none"><rect x="0.5" y="0.5" width="80" height="29" rx="7.5" fill="#1E00AE" fill-opacity="0.1"></rect><rect x="0.5" y="0.5" width="80" height="29" rx="7.5" stroke="#1E00AE"></rect><path d="M16.1264 7.5H16.8764C19.7048 7.5 21.119 7.5 21.9977 8.37868C22.8764 9.25736 22.8764 10.6716 22.8764 13.5V18.6964C20.5014 18.7143 15.1514 18.75 12.7514 18.75C10.8626 18.75 10.2435 19.5242 10.1264 20.1587V20.625C10.0998 20.4919 10.0947 20.3304 10.1264 20.1587V13.5C10.1264 10.6716 10.1264 9.25736 11.0051 8.37868C11.8838 7.5 13.298 7.5 16.1264 7.5Z" fill="#1E00AE" fill-opacity="0.4"></path><path d="M22.875 18.75H12C10.9645 18.75 10.125 19.5895 10.125 20.625C10.125 21.6605 10.9645 22.5 12 22.5H22.875C20.625 21.75 21 19.125 22.875 18.75Z" fill="white"></path><path d="M22.875 18.6964V13.5C22.875 10.6716 22.875 9.25736 21.9963 8.37868C21.1176 7.5 19.7034 7.5 16.875 7.5H16.125C13.2966 7.5 11.8824 7.5 11.0037 8.37868C10.125 9.25736 10.125 10.6716 10.125 13.5V20.625" stroke="#1E00AE" stroke-width="1.3" stroke-linecap="round"></path><path d="M22.875 18.75H12C10.9645 18.75 10.125 19.5895 10.125 20.625C10.125 21.6605 10.9645 22.5 12 22.5H22.875" stroke="#1E00AE" stroke-width="1.3" stroke-linecap="round"></path><path d="M22.875 22.5C21.8395 22.5 21 21.6605 21 20.625C21 19.5895 21.8395 18.75 22.875 18.75" stroke="#1E00AE" stroke-width="1.3" stroke-linecap="round"></path><path d="M18.75 11.25L14.25 11.25" stroke="#1E00AE" stroke-width="1.3" stroke-linecap="round" stroke-linejoin="round"></path><path d="M16.5 14.25L14.25 14.25" stroke="#1E00AE" stroke-width="1.3" stroke-linecap="round" stroke-linejoin="round"></path><path d="M30.508 19.5V10.608H34.504C36.748 10.608 37.648 11.532 37.648 13.356C37.648 15.192 36.772 16.284 34.468 16.284H31.696V19.5H30.508ZM31.696 15.156H34.504C35.776 15.156 36.436 14.7 36.436 13.416C36.436 12.108 35.8 11.736 34.48 11.736H31.696V15.156ZM38.8249 19.5V12.888L39.7489 12.828L39.8689 13.644C40.1329 13.164 40.9489 12.768 42.1249 12.744V13.92C40.5169 13.932 40.0009 14.76 40.0009 15.984V19.5H38.8249ZM43.3501 19.5V12.828H44.5021V19.5H43.3501ZM43.3381 12.024V10.608H44.5141V12.024H43.3381ZM46.3015 19.5V12.888L47.2255 12.828L47.3215 13.464C47.6335 13.044 48.2695 12.672 49.7815 12.672C51.8935 12.672 52.1815 13.788 52.1815 15.432V19.5H51.0175V15.66C51.0175 14.58 50.9215 13.824 49.4095 13.824C47.7655 13.824 47.4775 14.652 47.4775 15.804V19.5H46.3015ZM53.3675 13.884V12.828H54.5795L54.7835 10.932L55.7075 10.752V12.828H57.4715V13.884H55.7075V17.52C55.7075 18.108 55.7795 18.468 56.6675 18.468H57.4715V19.5C57.3275 19.512 56.6435 19.512 56.4635 19.512C54.8795 19.512 54.5435 18.912 54.5435 17.676V13.884H53.3675ZM61.6168 19.632C58.8808 19.632 58.3408 18.084 58.3408 16.152C58.3408 14.232 58.9288 12.672 61.5928 12.672C64.3408 12.672 64.4368 14.58 64.4008 16.608H59.4688C59.5408 17.82 59.9608 18.624 61.6168 18.624C62.6968 18.624 63.2248 18.348 63.7408 17.964L64.3648 18.78C63.6568 19.332 62.8768 19.632 61.6168 19.632ZM61.5568 13.704C60.0328 13.704 59.5768 14.448 59.4808 15.576H63.2968C63.2368 14.52 63.1408 13.704 61.5568 13.704ZM68.3455 19.62C66.1135 19.62 65.4775 18.18 65.4775 16.128C65.4775 14.1 66.1255 12.684 68.3815 12.684C69.7735 12.684 70.4455 12.948 70.7695 13.488V10.188H71.9455V19.452L71.0455 19.536L70.9135 18.756C70.4935 19.344 69.7735 19.62 68.3455 19.62ZM68.5975 18.552C70.1695 18.552 70.7695 17.892 70.7695 16.128C70.7695 14.376 70.2055 13.776 68.5975 13.776C67.0615 13.776 66.6655 14.676 66.6655 16.128C66.6655 17.604 67.0615 18.552 68.5975 18.552Z" fill="#2C2C2C"></path></svg>