<svg xmlns="http://www.w3.org/2000/svg" width="16" height="16" viewBox="0 0 16 16" fill="none"><path d="M7.82502 9.99992C8.92959 9.99992 9.82502 9.10449 9.82502 7.99992C9.82502 6.89535 8.92959 5.99992 7.82502 5.99992C6.72045 5.99992 5.82502 6.89535 5.82502 7.99992C5.82502 9.10449 6.72045 9.99992 7.82502 9.99992Z" stroke="#157FFF" stroke-width="1.4" stroke-linecap="round" stroke-linejoin="round"></path><path d="M12.3099 9.8181C12.2292 10.0009 12.2051 10.2037 12.2408 10.4003C12.2764 10.5969 12.3702 10.7783 12.5099 10.9211L12.5462 10.9575C12.6589 11.0701 12.7483 11.2038 12.8093 11.3509C12.8703 11.4981 12.9017 11.6558 12.9017 11.8151C12.9017 11.9744 12.8703 12.1321 12.8093 12.2792C12.7483 12.4264 12.6589 12.5601 12.5462 12.6726C12.4337 12.7853 12.3 12.8748 12.1528 12.9357C12.0057 12.9967 11.848 13.0281 11.6887 13.0281C11.5294 13.0281 11.3716 12.9967 11.2245 12.9357C11.0773 12.8748 10.9437 12.7853 10.8311 12.6726L10.7947 12.6363C10.6519 12.4966 10.4705 12.4028 10.2739 12.3672C10.0773 12.3315 9.87449 12.3556 9.69169 12.4363C9.51244 12.5131 9.35956 12.6407 9.25188 12.8033C9.14419 12.9659 9.08641 13.1564 9.08563 13.3514V13.4545C9.08563 13.7759 8.95792 14.0842 8.73061 14.3116C8.50329 14.5389 8.19498 14.6666 7.87351 14.6666C7.55203 14.6666 7.24373 14.5389 7.01641 14.3116C6.78909 14.0842 6.66139 13.7759 6.66139 13.4545V13.3999C6.65669 13.1993 6.59176 13.0048 6.47503 12.8416C6.3583 12.6783 6.19517 12.554 6.00684 12.4848C5.82404 12.4041 5.62127 12.38 5.42467 12.4157C5.22806 12.4513 5.04665 12.545 4.90381 12.6848L4.86745 12.7211C4.75487 12.8338 4.62119 12.9232 4.47404 12.9842C4.32689 13.0452 4.16916 13.0766 4.00987 13.0766C3.85058 13.0766 3.69285 13.0452 3.5457 12.9842C3.39855 12.9232 3.26487 12.8338 3.1523 12.7211C3.0396 12.6086 2.95019 12.4749 2.88919 12.3277C2.82819 12.1806 2.7968 12.0228 2.7968 11.8636C2.7968 11.7043 2.82819 11.5465 2.88919 11.3994C2.95019 11.2522 3.0396 11.1186 3.1523 11.006L3.18866 10.9696C3.32838 10.8268 3.4221 10.6454 3.45775 10.4488C3.4934 10.2522 3.46933 10.0494 3.38866 9.86659C3.31183 9.68733 3.18427 9.53445 3.02167 9.42677C2.85907 9.31909 2.66853 9.2613 2.47351 9.26052H2.37048C2.049 9.26052 1.74069 9.13282 1.51338 8.9055C1.28606 8.67819 1.15836 8.36988 1.15836 8.0484C1.15836 7.72693 1.28606 7.41862 1.51338 7.1913C1.74069 6.96399 2.049 6.83628 2.37048 6.83628H2.42502C2.62563 6.83159 2.82018 6.76666 2.98339 6.64993C3.14659 6.53319 3.27091 6.37006 3.34017 6.18174C3.42085 5.99894 3.44492 5.79617 3.40927 5.59956C3.37362 5.40296 3.27989 5.22154 3.14017 5.07871L3.10381 5.04234C2.99111 4.92977 2.90171 4.79609 2.84071 4.64894C2.77971 4.50179 2.74831 4.34406 2.74831 4.18477C2.74831 4.02548 2.77971 3.86775 2.84071 3.7206C2.90171 3.57345 2.99111 3.43976 3.10381 3.32719C3.21638 3.21449 3.35007 3.12509 3.49722 3.06409C3.64437 3.00309 3.80209 2.97169 3.96139 2.97169C4.12068 2.97169 4.27841 3.00309 4.42556 3.06409C4.57271 3.12509 4.70639 3.21449 4.81896 3.32719L4.85533 3.36356C4.99816 3.50327 5.17958 3.597 5.37618 3.63265C5.57278 3.6683 5.77556 3.64423 5.95836 3.56355H6.00684C6.18609 3.48673 6.33897 3.35916 6.44665 3.19656C6.55434 3.03396 6.61212 2.84343 6.6129 2.6484V2.54537C6.6129 2.2239 6.74061 1.91559 6.96792 1.68827C7.19524 1.46096 7.50355 1.33325 7.82502 1.33325C8.1465 1.33325 8.4548 1.46096 8.68212 1.68827C8.90944 1.91559 9.03714 2.2239 9.03714 2.54537V2.59992C9.03792 2.79494 9.09571 2.98548 9.20339 3.14808C9.31107 3.31068 9.46395 3.43824 9.6432 3.51507C9.826 3.59575 10.0288 3.61981 10.2254 3.58416C10.422 3.54852 10.6034 3.45479 10.7462 3.31507L10.7826 3.27871C10.8952 3.16601 11.0289 3.0766 11.176 3.0156C11.3232 2.9546 11.4809 2.92321 11.6402 2.92321C11.7995 2.92321 11.9572 2.9546 12.1043 3.0156C12.2515 3.0766 12.3852 3.16601 12.4977 3.27871C12.6104 3.39128 12.6999 3.52496 12.7609 3.67211C12.8219 3.81926 12.8532 3.97699 12.8532 4.13628C12.8532 4.29557 12.8219 4.4533 12.7609 4.60045C12.6999 4.7476 12.6104 4.88128 12.4977 4.99386L12.4614 5.03022C12.3217 5.17306 12.2279 5.35447 12.1923 5.55108C12.1566 5.74768 12.1807 5.95045 12.2614 6.13325V6.18174C12.3382 6.36099 12.4658 6.51387 12.6284 6.62155C12.791 6.72923 12.9815 6.78702 13.1765 6.7878H13.2796C13.601 6.7878 13.9094 6.9155 14.1367 7.14282C14.364 7.37014 14.4917 7.67844 14.4917 7.99992C14.4917 8.32139 14.364 8.6297 14.1367 8.85702C13.9094 9.08433 13.601 9.21204 13.2796 9.21204H13.225C13.03 9.21282 12.8395 9.27061 12.6769 9.37829C12.5143 9.48597 12.3867 9.63885 12.3099 9.8181Z" stroke="#157FFF" stroke-width="1.4" stroke-linecap="round" stroke-linejoin="round"></path></svg>