<svg xmlns="http://www.w3.org/2000/svg" width="16" height="16" viewBox="0 0 16 16" fill="none"><g clip-path="url(#clip0_260_9987)"><path d="M2.31758 2.54205C2.31758 2.54205 2.64655 2.21308 3.3045 1.55514C3.96244 0.897193 5.2235 0.568221 7.08768 0.568221C8.95185 0.568221 10.5419 1.22616 11.8578 2.54205C13.1737 3.85794 13.8316 5.44797 13.8316 7.31215C13.8316 9.17632 13.1737 10.7664 11.8578 12.0822C10.5419 13.3981 8.95185 14.0561 7.08768 14.0561C5.2235 14.0561 3.63347 13.3981 2.31758 12.0822C1.00169 10.7664 0.34375 9.17632 0.34375 7.31215C0.34375 5.44797 1.00169 3.85794 2.31758 2.54205ZM7.07272 12.8C8.06961 12.8 8.99172 12.5558 9.83908 12.0673C10.6864 11.5788 11.3543 10.9109 11.8428 10.0635C12.3313 9.2162 12.5755 8.29408 12.5755 7.29719C12.5755 5.78193 12.0422 4.49096 10.9755 3.4243C9.90886 2.35763 8.61291 1.8243 7.08768 1.8243C5.56244 1.8243 4.26649 2.35763 3.19982 3.4243C2.13316 4.49096 1.59982 5.78691 1.59982 7.31215C1.59982 8.83738 2.13316 10.1333 3.19982 11.2C4.26649 12.2667 5.55746 12.8 7.07272 12.8ZM15.4765 14.8037C15.5961 14.9433 15.6559 15.0978 15.6559 15.2673C15.6559 15.4368 15.5961 15.5813 15.4765 15.7009C15.3568 15.8206 15.2123 15.8804 15.0428 15.8804C14.8733 15.8804 14.7188 15.8206 14.5793 15.7009L11.0204 12.1421C10.9008 12.0025 10.8409 11.848 10.8409 11.6785C10.8409 11.509 10.9008 11.3645 11.0204 11.2449C11.14 11.1252 11.2846 11.0654 11.454 11.0654C11.6235 11.0654 11.778 11.1252 11.9176 11.2449L15.4765 14.8037Z" fill="white"></path></g><defs><clipPath id="clip0_260_9987"><rect width="16" height="16" fill="white" transform="matrix(1 0 0 -1 0 16)"></rect></clipPath></defs></svg>