<svg xmlns="http://www.w3.org/2000/svg" width="17" height="17" viewBox="0 0 17 17" fill="none"><path d="M6.30859 14.6426C6.23112 14.6426 6.16195 14.6287 6.10107 14.6011C6.0402 14.5734 5.98763 14.5319 5.94336 14.4766C5.88802 14.4323 5.84652 14.377 5.81885 14.3105C5.79118 14.2441 5.77734 14.1777 5.77734 14.1113C5.77734 14.0339 5.79118 13.9647 5.81885 13.9038C5.84652 13.8429 5.88802 13.7848 5.94336 13.7295L10.5586 9.11426C10.6361 9.03678 10.6969 8.94548 10.7412 8.84033C10.7855 8.73519 10.8076 8.62174 10.8076 8.5C10.8076 8.37826 10.7855 8.26481 10.7412 8.15967C10.6969 8.05452 10.6361 7.96322 10.5586 7.88574L5.94336 3.27051C5.89909 3.21517 5.86312 3.15706 5.83545 3.09619C5.80778 3.03532 5.79395 2.97168 5.79395 2.90527C5.79395 2.76139 5.84652 2.63688 5.95166 2.53174C6.0568 2.42659 6.18132 2.37402 6.3252 2.37402C6.3916 2.37402 6.45801 2.38786 6.52441 2.41553C6.59082 2.4432 6.64616 2.47363 6.69043 2.50684L11.3057 7.13867C11.4827 7.30469 11.6211 7.50667 11.7207 7.74463C11.8203 7.98258 11.8701 8.23438 11.8701 8.5C11.8701 8.5 11.8701 8.50277 11.8701 8.5083C11.8701 8.51383 11.8701 8.5166 11.8701 8.5166C11.8701 8.78223 11.8203 9.03125 11.7207 9.26367C11.6211 9.49609 11.4827 9.69531 11.3057 9.86133L6.69043 14.4766C6.63509 14.5319 6.57699 14.5734 6.51611 14.6011C6.45524 14.6287 6.38607 14.6426 6.30859 14.6426Z" fill="#2C2C2C"></path></svg>