<svg xmlns="http://www.w3.org/2000/svg" width="23" height="22" viewBox="0 0 23 22" fill="none"><path d="M8.5 11L10.5 13L15 8.5M8.7019 19.6009C9.02965 19.5575 9.36073 19.6464 9.62182 19.8475L10.8251 20.7708C11.2228 21.0764 11.7761 21.0764 12.1727 20.7708L13.4215 19.812C13.6548 19.6331 13.9492 19.5542 14.2403 19.5931L15.8024 19.7986C16.299 19.8642 16.7779 19.5875 16.9701 19.1242L17.5712 17.6709C17.6834 17.3987 17.8989 17.1832 18.1711 17.0709L19.6243 16.4698C20.0876 16.2787 20.3643 15.7988 20.2987 15.3021L20.101 13.7966C20.0576 13.4688 20.1465 13.1377 20.3476 12.8766L21.2709 11.6733C21.5764 11.2755 21.5764 10.7222 21.2709 10.3256L20.312 9.07672C20.1332 8.84339 20.0543 8.54896 20.0932 8.25785L20.2987 6.69568C20.3643 6.19902 20.0876 5.72015 19.6243 5.52793L18.1711 4.92684C17.8989 4.81462 17.6834 4.59907 17.5712 4.32685L16.9701 2.87356C16.779 2.41024 16.299 2.13358 15.8024 2.19913L14.2403 2.40468C13.9492 2.44468 13.6548 2.36579 13.4226 2.18802L12.1738 1.22916C11.7761 0.923613 11.2228 0.923613 10.8262 1.22916L9.57738 2.18802C9.34407 2.36579 9.04965 2.44468 8.75856 2.40691L7.19647 2.20136C6.69984 2.1358 6.221 2.41246 6.02879 2.87578L5.42884 4.32907C5.31552 4.60018 5.09998 4.81573 4.82889 4.92906L3.37568 5.52904C2.91238 5.72126 2.63574 6.20013 2.70129 6.69679L2.90683 8.25897C2.9446 8.55007 2.86572 8.8445 2.68796 9.07672L1.72915 10.3256C1.42362 10.7233 1.42362 11.2767 1.72915 11.6733L2.68796 12.9222C2.86683 13.1555 2.94571 13.4499 2.90683 13.741L2.70129 15.3032C2.63574 15.7999 2.91238 16.2787 3.37568 16.471L4.82889 17.0721C5.10109 17.1843 5.31663 17.3998 5.42884 17.672L6.0299 19.1253C6.221 19.5887 6.70096 19.8653 7.19758 19.7998L8.7019 19.6009Z" stroke="white" stroke-width="1.5" stroke-linecap="round" stroke-linejoin="round"></path></svg>