<svg xmlns="http://www.w3.org/2000/svg" width="20" height="21" viewBox="0 0 20 21" fill="none"><g clip-path="url(#clip0_158_8681)"><path d="M18.1572 18.0841L18.1578 18.0841V18.0977V18.0977V18.0977V18.0977V18.0977V18.0977V18.0978V18.0978V18.0978V18.0978V18.0978V18.0978V18.0979V18.0979V18.0979V18.0979V18.098V18.098V18.098V18.098V18.098V18.0981V18.0981V18.0981V18.0981V18.0981V18.0981V18.0982V18.0982V18.0982V18.0982V18.0982V18.0982V18.0983V18.0983V18.0983V18.0983V18.0983V18.0984V18.0984V18.0984V18.0984V18.0985V18.0985V18.0985V18.0985V18.0985V18.0986V18.0986V18.0986V18.0986V18.0987V18.0987V18.0987V18.0987V18.0988V18.0988V18.0988V18.0988V18.0989V18.0989V18.0989V18.0989V18.099V18.099V18.099V18.0991V18.0991V18.0991V18.0991V18.0992V18.0992V18.0992V18.0993V18.0993V18.0993V18.0994V18.0994V18.0994V18.0995V18.0995V18.0995V18.0996V18.0996V18.0996V18.0997V18.0997V18.0997V18.0998V18.0998V18.0998V18.0999V18.0999V18.0999V18.1V18.1V18.1001V18.1001V18.1001V18.1002V18.1002V18.1003V18.1003V18.1003V18.1004V18.1004V18.1005V18.1005V18.1005V18.1006V18.1006V18.1007V18.1007V18.1007V18.1008V18.1008V18.1009V18.1009V18.101V18.101V18.1011V18.1011V18.1011V18.1012V18.1012V18.1013V18.1013V18.1014V18.1014V18.1015V18.1015V18.1016V18.1016V18.1017V18.1017V18.1018V18.1018V18.1019V18.1019V18.102V18.102V18.1021V18.1021V18.1022V18.1022V18.1023V18.1023V18.1024V18.1024V18.1025V18.1025V18.1026V18.1026V18.1027V18.1028V18.1028V18.1029V18.1029V18.103V18.103V18.1031V18.1031V18.1032V18.1033V18.1033V18.1034V18.1034V18.1035V18.1036V18.1036V18.1037V18.1037V18.1038V18.1039V18.1039V18.104V18.104V18.1041V18.1042V18.1042V18.1043V18.1044V18.1044V18.1045V18.1045V18.1046V18.1047V18.1047V18.1048V18.1049V18.1049V18.105V18.1051V18.1051V18.1052V18.1053V18.1053V18.1054V18.1055V18.1055V18.1056V18.1057V18.1057V18.1058V18.1059V18.106V18.106V18.1061V18.1062V18.1062V18.1063V18.1064V18.1065V18.1065V18.1066V18.1067V18.1067V18.1068V18.1069V18.107V18.107V18.1071V18.1072V18.1073V18.1073V18.1074V18.1075V18.1076V18.1077V18.1077V18.1078V18.1079V18.108V18.108V18.1081V18.1082V18.1083V18.1084V18.1084V18.1085V18.1086V18.1087V18.1088V18.1088V18.1089V18.109V18.1091V18.1092V18.1093V18.1093V18.1094V18.1095V18.1096V18.1097V18.1098V18.1098V18.1099V18.11V18.1101V18.1102V18.1103V18.1104V18.1104V18.1105V18.1106V18.1107V18.1108V18.1109V18.111V18.1111V18.1112V18.1112V18.1113V18.1114V18.1115V18.1116V18.1117V18.1118V18.1119V18.112V18.1121V18.1122V18.1123V18.1123V18.1124V18.1125V18.1126V18.1127V18.1128V18.1129V18.113V18.1131V18.1132V18.1133V18.1134V18.1135V18.1136V18.1137V18.1138V18.1139V18.114V18.1141V18.1142V18.1143V18.1144V18.1145V18.1146V18.1147V18.1148V18.1149V18.115V18.1151V18.1152V18.1153V18.1154V18.1155V18.1156V18.1157V18.1158V18.1159V18.116V18.1161V18.1162V18.1163V18.1164V18.1165V18.1166V18.1168V18.1169V18.117V18.1171V18.1172V18.1173V18.1174V18.1175V18.1176V18.1177V18.1178V18.1179V18.1181V18.1182V18.1183V18.1184V18.1185V18.1186V18.1187V18.1188V18.1189V18.1191V18.1192V18.1193V18.1194V18.1195V18.1196V18.1197V18.1199V18.12V18.1201V18.1202V18.1203V18.1204V18.1206V18.1207V18.1208V18.1209V18.121V18.1211V18.1213V18.1214V18.1215V18.1216V18.1217V18.1219V18.122V18.1221V18.1222V18.1223V18.1225V18.1226V18.1227V18.1228V18.123V18.1231V18.1232V18.1233V18.1234V18.1236V18.1237V18.1238V18.1239V18.1241V18.1242V18.1243V18.1244V18.1246V18.1247V18.1248V18.125V18.1251V18.1252V18.1253V18.1255V18.1256V18.1257V18.1259V18.126V18.1261V18.1262V18.1264V18.1265V18.1266V18.1268V18.1269V18.127V18.1272V18.1273V18.1274V18.1276V18.1277V18.1278V18.128V18.1281V18.1282V18.1284V18.1285V18.1286V18.1288V18.1289V18.1291V18.1292V18.1293V18.1295V18.1296V18.1297V18.1299V18.13V18.1302V18.1303V18.1304V18.1306V18.1307V18.1309V18.131V18.1311V18.1313V18.1314V18.1316V18.1317V18.1318V18.132V18.1321V18.1323V18.1324V18.1326V18.1327V18.1329V18.133V18.1331V18.1333V18.1334V18.1336V18.1337V18.1339V18.134V18.1342V18.1343V18.1345V18.1346V18.1348V18.1349V18.1351V18.1352V18.1354V18.1355V18.1357V18.1358V18.136V18.1361V18.1363V18.1364V18.1366V18.1367C18.1578 18.9122 17.8438 19.5769 17.2286 20.1238C16.6133 20.6707 15.8675 20.943 15 20.943H5C4.13245 20.943 3.38666 20.6707 2.77144 20.1238C2.15619 19.5769 1.84219 18.9122 1.84219 18.1367V18.1367V18.1367V18.1367V18.1367V18.1367V18.1367V18.1367V18.1367V18.1367V18.1367V18.1367V18.1367V18.1367V18.1367V18.1367V18.1367V18.1367V18.1366V18.1366V18.1366V18.1366V18.1366V18.1366V18.1366V18.1366V18.1366V18.1366V18.1366V18.1366V18.1365V18.1365V18.1365V18.1365V18.1365V18.1365V18.1365V18.1365V18.1365V18.1364V18.1364V18.1364V18.1364V18.1364V18.1364V18.1364V18.1363V18.1363V18.1363V18.1363V18.1363V18.1363V18.1363V18.1362V18.1362V18.1362V18.1362V18.1362V18.1361V18.1361V18.1361V18.1361V18.1361V18.136V18.136V18.136V18.136V18.136V18.1359V18.1359V18.1359V18.1359V18.1359V18.1358V18.1358V18.1358V18.1358V18.1357V18.1357V18.1357V18.1357V18.1356V18.1356V18.1356V18.1356V18.1355V18.1355V18.1355V18.1355V18.1354V18.1354V18.1354V18.1353V18.1353V18.1353V18.1353V18.1352V18.1352V18.1352V18.1351V18.1351V18.1351V18.135V18.135V18.135V18.1349V18.1349V18.1349V18.1348V18.1348V18.1348V18.1347V18.1347V18.1347V18.1346V18.1346V18.1346V18.1345V18.1345V18.1345V18.1344V18.1344V18.1344V18.1343V18.1343V18.1342V18.1342V18.1342V18.1341V18.1341V18.134V18.134V18.134V18.1339V18.1339V18.1338V18.1338V18.1338V18.1337V18.1337V18.1336V18.1336V18.1335V18.1335V18.1335V18.1334V18.1334V18.1333V18.1333V18.1332V18.1332V18.1331V18.1331V18.133V18.133V18.133V18.1329V18.1329V18.1328V18.1328V18.1327V18.1327V18.1326V18.1326V18.1325V18.1325V18.1324V18.1324V18.1323V18.1323V18.1322V18.1322V18.1321V18.1321V18.132V18.1319V18.1319V18.1318V18.1318V18.1317V18.1317V18.1316V18.1316V18.1315V18.1315V18.1314V18.1313V18.1313V18.1312V18.1312V18.1311V18.1311V18.131V18.1309V18.1309V18.1308V18.1308V18.1307V18.1306V18.1306V18.1305V18.1305V18.1304V18.1303V18.1303V18.1302V18.1301V18.1301V18.13V18.13V18.1299V18.1298V18.1298V18.1297V18.1296V18.1296V18.1295V18.1294V18.1294V18.1293V18.1292V18.1292V18.1291V18.129V18.129V18.1289V18.1288V18.1288V18.1287V18.1286V18.1286V18.1285V18.1284V18.1283V18.1283V18.1282V18.1281V18.1281V18.128V18.1279V18.1278V18.1278V18.1277V18.1276V18.1276V18.1275V18.1274V18.1273V18.1273V18.1272V18.1271V18.127V18.127V18.1269V18.1268V18.1267V18.1266V18.1266V18.1265V18.1264V18.1263V18.1263V18.1262V18.1261V18.126V18.1259V18.1259V18.1258V18.1257V18.1256V18.1255V18.1254V18.1254V18.1253V18.1252V18.1251V18.125V18.125V18.1249V18.1248V18.1247V18.1246V18.1245V18.1244V18.1244V18.1243V18.1242V18.1241V18.124V18.1239V18.1238V18.1238V18.1237V18.1236V18.1235V18.1234V18.1233V18.1232V18.1231V18.123V18.1229V18.1229V18.1228V18.1227V18.1226V18.1225V18.1224V18.1223V18.1222V18.1221V18.122V18.1219V18.1218V18.1217V18.1217V18.1216V18.1215V18.1214V18.1213V18.1212V18.1211V18.121V18.1209V18.1208V18.1207V18.1206V18.1205V18.1204V18.1203V18.1202V18.1201V18.12V18.1199V18.1198V18.1197V18.1196V18.1195V18.1194V18.1193V18.1192V18.1191V18.119V18.1189V18.1188V18.1187V18.1186V18.1185V18.1184V18.1183V18.1182V18.118V18.1179V18.1178V18.1177V18.1176V18.1175V18.1174V18.1173V18.1172V18.1171V18.117V18.1169V18.1168V18.1166V18.1165V18.1164V18.1163V18.1162V18.1161V18.116V18.1159V18.1158V18.1157V18.1155V18.1154V18.1153V18.1152V18.1151V18.115V18.1149V18.1147V18.1146V18.1145V18.1144V18.1143V18.1142V18.1141V18.1139V18.1138V18.1137V18.1136V18.1135V18.1134V18.1132V18.1131V18.113V18.1129V18.1128V18.1126V18.1125V18.1124V18.1123V18.1122V18.112V18.1119V18.1118V18.1117V18.1115V18.1114V18.1113V18.1112V18.1111V18.1109V18.1108V18.1107V18.1106V18.1104V18.1103V18.1102V18.1101V18.1099V18.1098V18.1097V18.1095V18.1094V18.1093V18.1092V18.109V18.1089V18.1088V18.1087V18.1085V18.1084V18.1083V18.1081V18.108V18.1079V18.1077V18.1076V18.1075V18.1073V18.1072V18.1071V18.1069V18.1068V18.1067V18.1065V18.1064V18.1063V18.1061V18.106V18.1059V18.1057V18.1056V18.1055V18.1053V18.1052V18.1051V18.1049V18.1048V18.1046V18.1045V18.1044V18.1042V18.1041V18.1039V18.1038V18.1037V18.1035V18.1034V18.1032V18.1031V18.103V18.1028V18.1027V18.1025V18.1024V18.1022V18.1021V18.102V18.1018V18.1017V18.1015V18.1014V18.1012V18.1011V18.1009V18.1008V18.1006V18.1005V18.1004V18.1002V18.1001V18.0999V18.0998V18.0996V18.0995V18.0993V18.0992V18.099V18.0989V18.0987V18.0986V18.0984V18.0983V18.0981V18.098V18.0978V18.0977H1.84157L1.8428 18.0841L3.01458 5.15551C3.0146 5.15532 3.01461 5.15514 3.01463 5.15495C3.02997 4.97212 3.09339 4.81335 3.22269 4.70252C3.35033 4.59311 3.52039 4.54922 3.71094 4.54922H5.90709C5.9416 3.47993 6.34759 2.56683 7.12231 1.81793C7.93098 1.03622 8.89263 0.642969 10 0.642969C11.1074 0.642969 12.069 1.03622 12.8777 1.81793C13.6524 2.56683 14.0584 3.47993 14.0929 4.54922H16.2891C16.4796 4.54922 16.6497 4.59311 16.7773 4.70252C16.9066 4.81336 16.97 4.97214 16.9854 5.15499C16.9854 5.15516 16.9854 5.15534 16.9854 5.15551L18.1572 18.0841ZM11.8861 2.8131L11.8861 2.81308L11.8861 2.81307L11.8861 2.81306L11.8861 2.81304L11.886 2.81302L11.886 2.813L11.886 2.81297L11.886 2.81294L11.8859 2.81291L11.8859 2.81287L11.8859 2.81283L11.8858 2.81279L11.8858 2.81275L11.8857 2.8127L11.8857 2.81264L11.8856 2.81259L11.8856 2.81253L11.8855 2.81247L11.8854 2.81241L11.8854 2.81234L11.8853 2.81227L11.8852 2.8122L11.8851 2.81212L11.8851 2.81204L11.885 2.81196L11.8849 2.81187L11.8848 2.81178L11.8847 2.81169L11.8846 2.81159L11.8845 2.81149L11.8844 2.81139L11.8843 2.81129L11.8842 2.81118L11.8841 2.81107L11.884 2.81096L11.8839 2.81084L11.8837 2.81072L11.8836 2.81059L11.8835 2.81047L11.8834 2.81034L11.8832 2.8102L11.8831 2.81007L11.883 2.80993L11.8828 2.80979L11.8827 2.80964L11.8825 2.80949L11.8824 2.80934L11.8822 2.80919L11.8821 2.80903L11.8819 2.80887L11.8817 2.8087L11.8816 2.80853L11.8814 2.80836L11.8812 2.80819L11.881 2.80801L11.8809 2.80783L11.8807 2.80765L11.8805 2.80746L11.8803 2.80728L11.8801 2.80708L11.8799 2.80689L11.8797 2.80669L11.8795 2.80649L11.8793 2.80628L11.8791 2.80607L11.8789 2.80586L11.8787 2.80565L11.8785 2.80543L11.8782 2.80521L11.878 2.80499L11.8778 2.80476L11.8776 2.80453L11.8773 2.8043L11.8771 2.80406L11.8768 2.80382L11.8766 2.80358L11.8764 2.80333L11.8761 2.80308L11.8759 2.80283L11.8756 2.80258L11.8753 2.80232L11.8751 2.80206L11.8748 2.80179L11.8745 2.80153L11.8743 2.80125L11.874 2.80098L11.8737 2.8007L11.8734 2.80042L11.8732 2.80014L11.8729 2.79985L11.8726 2.79956L11.8723 2.79927L11.872 2.79898L11.8717 2.79868L11.8714 2.79838L11.8711 2.79807L11.8708 2.79776L11.8705 2.79745L11.8702 2.79714L11.8698 2.79682L11.8695 2.7965L11.8692 2.79618L11.8689 2.79585L11.8685 2.79552L11.8682 2.79518L11.8679 2.79485L11.8675 2.79451L11.8672 2.79416L11.8668 2.79382L11.8665 2.79347L11.8661 2.79312L11.8658 2.79276L11.8654 2.79241L11.8651 2.79204L11.8647 2.79168L11.8643 2.79131L11.864 2.79094L11.8636 2.79057L11.8632 2.79019L11.8628 2.78981L11.8625 2.78943L11.8621 2.78904L11.8617 2.78865L11.8613 2.78826L11.8609 2.78786L11.8605 2.78746L11.8601 2.78706L11.8597 2.78666L11.8593 2.78625L11.8589 2.78584L11.8584 2.78542L11.858 2.785L11.8576 2.78458L11.8572 2.78416L11.8568 2.78373L11.8563 2.7833L11.8559 2.78287L11.8555 2.78243L11.855 2.78199L11.8546 2.78155L11.8541 2.7811L11.8537 2.78065L11.8532 2.7802L11.8528 2.77975L11.8523 2.77929L11.8518 2.77883L11.8514 2.77836L11.8509 2.77789L11.8504 2.77742L11.85 2.77695L11.8495 2.77647L11.849 2.77599L11.8485 2.77551L11.848 2.77502L11.8476 2.77453L11.8471 2.77404L11.8466 2.77354L11.8461 2.77304L11.8456 2.77254L11.8451 2.77204L11.8446 2.77153L11.844 2.77102L11.8435 2.7705L11.843 2.76998L11.8425 2.76946L11.842 2.76894L11.8414 2.76841L11.8409 2.76788L11.8404 2.76735L11.8398 2.76681L11.8393 2.76627L11.8388 2.76573L11.8382 2.76518L11.8377 2.76463L11.8371 2.76408L11.8365 2.76352L11.836 2.76297L11.8354 2.7624L11.8349 2.76184L11.8343 2.76127L11.8337 2.7607L11.8331 2.76013L11.8326 2.75955L11.832 2.75897L11.8314 2.75838L11.8308 2.7578L11.8302 2.75721L11.8296 2.75661L11.829 2.75602L11.8284 2.75542L11.8278 2.75482L11.8272 2.75421L11.8266 2.7536L11.826 2.75299L11.8254 2.75238L11.8248 2.75176L11.8242 2.75114L11.8235 2.75051L11.8229 2.74989L11.8223 2.74925L11.8216 2.74862L11.821 2.74798L11.8204 2.74734L11.8197 2.7467L11.8191 2.74606L11.8184 2.74541L11.8178 2.74475L11.8171 2.7441L11.8165 2.74344L11.8158 2.74278L11.8151 2.74211L11.8145 2.74144L11.8138 2.74077L11.8131 2.7401L11.8124 2.73942L11.8118 2.73874L11.8111 2.73806L11.8104 2.73737L11.8097 2.73668L11.809 2.73599L11.8083 2.73529L11.8076 2.73459L11.8069 2.73389L11.8062 2.73318L11.8055 2.73247L11.8048 2.73176L11.8041 2.73105L11.8034 2.73033L11.8026 2.72961L11.8019 2.72888L11.8012 2.72816L11.8004 2.72742L11.7997 2.72669L11.799 2.72595L11.7982 2.72521L11.7975 2.72447L11.7967 2.72372L11.796 2.72297L11.7952 2.72222L11.7945 2.72147L11.7937 2.72071L11.793 2.71995L11.7922 2.71918L11.7914 2.71841L11.7907 2.71764L11.7899 2.71687L11.7891 2.71609L11.7883 2.71531L11.7875 2.71453L11.7868 2.71374L11.786 2.71295L11.7852 2.71215L11.7844 2.71136L11.7836 2.71056L11.7828 2.70975L11.782 2.70895L11.7812 2.70814L11.7804 2.70733L11.7795 2.70651L11.7787 2.7057L11.7779 2.70487L11.7771 2.70405L11.7762 2.70322L11.7754 2.70239L11.7746 2.70156L11.7737 2.70072L11.7729 2.69988L11.7721 2.69904L11.7712 2.69819L11.7704 2.69734L11.7695 2.69649L11.7687 2.69563L11.7678 2.69477L11.7669 2.69391L11.7661 2.69304L11.7652 2.69218L11.7643 2.69131L11.7635 2.69043L11.7626 2.68955L11.7617 2.68867L11.7608 2.68779L11.7599 2.6869L11.759 2.68601L11.7581 2.68512L11.7572 2.68422L11.7563 2.68332L11.7554 2.68242L11.7545 2.68151L11.7536 2.6806L11.7527 2.67969L11.7518 2.67878L11.7509 2.67786L11.75 2.67694L11.749 2.67601L11.7481 2.67508L11.7472 2.67415L11.7462 2.67322L11.7453 2.67228L11.7444 2.67134L11.7434 2.6704L11.7425 2.66945L11.7415 2.6685L11.7406 2.66755L11.7396 2.66659L11.7387 2.66563L11.7377 2.66467L11.7367 2.66371L11.7358 2.66274L11.7348 2.66177L11.7338 2.66079L11.7328 2.65981L11.7319 2.65883L11.7309 2.65785L11.7299 2.65686L11.7289 2.65587L11.7279 2.65488L11.7269 2.65388L11.7259 2.65288L11.7249 2.65188L11.7239 2.65087L11.7229 2.64986L11.7219 2.64885L11.7209 2.64783L11.7198 2.64682L11.7188 2.64579L11.7178 2.64477L11.7168 2.64374L11.7157 2.64271L11.7147 2.64168L11.7137 2.64064L11.7126 2.6396L11.7116 2.63855L11.7105 2.63751L11.7095 2.63646L11.7084 2.6354L11.7074 2.63435L11.7063 2.63329L11.7053 2.63223L11.7042 2.63116L11.7031 2.63009L11.702 2.62902L11.701 2.62795L11.6999 2.62687L11.6988 2.62579L11.6977 2.6247L11.6966 2.62362L11.6955 2.62252L11.6945 2.62143L11.6934 2.62033L11.6923 2.61923L11.6912 2.61813L11.69 2.61703L11.6889 2.61592L11.6878 2.6148L11.6867 2.61369L11.6856 2.61257L11.6845 2.61145L11.6833 2.61032L11.6822 2.60919L11.6811 2.60806L11.68 2.60693L11.6788 2.60579L11.6777 2.60465L11.6765 2.60351L11.6754 2.60236L11.6742 2.60121L11.6731 2.60006L11.6719 2.5989L11.6708 2.59774L11.6696 2.59658L11.6684 2.59541L11.6673 2.59424L11.6661 2.59307L11.6649 2.5919L11.6637 2.59072L11.6626 2.58954L11.6614 2.58835L11.6602 2.58717L11.659 2.58598L11.6578 2.58478L11.6566 2.58358L11.6554 2.58238L11.6542 2.58118L11.653 2.57998L11.6518 2.57877L11.6506 2.57755L11.6494 2.57634L11.6481 2.57512L11.6469 2.5739L11.6457 2.57267L11.6445 2.57144L11.6432 2.57021L11.642 2.56898L11.6408 2.56774L11.6395 2.5665L11.6383 2.56525L11.637 2.56401L11.6358 2.56276L11.6345 2.5615L11.6333 2.56025L11.632 2.55899L11.6307 2.55773L11.6295 2.55646L11.6282 2.55519L11.6269 2.55392L11.6257 2.55264L11.6244 2.55136L11.6231 2.55009L11.6218 2.5488L11.6205 2.54751L11.6192 2.54622L11.618 2.54493L11.6167 2.54363L11.6154 2.54233L11.6141 2.54103L11.6127 2.53972L11.6114 2.53841L11.6101 2.5371L11.6088 2.53578L11.6075 2.53446L11.6062 2.53314L11.6048 2.53182L11.6035 2.53049L11.6022 2.52916L11.6008 2.52782L11.5995 2.52648L11.5982 2.52514L11.5968 2.5238L11.5955 2.52245L11.5941 2.5211L11.5928 2.51975L11.5914 2.51839L11.5901 2.51703L11.5887 2.51567L11.5873 2.5143L11.586 2.51293L11.5846 2.51156L11.5832 2.51019L11.5818 2.50881L11.5805 2.50743L11.5791 2.50604L11.5777 2.50465L11.5763 2.50326L11.5749 2.50187L11.5735 2.50047L11.5721 2.49907L11.5707 2.49767L11.5693 2.49626L11.5679 2.49485L11.5665 2.49344L11.565 2.49202L11.5636 2.4906L11.5622 2.48918L11.5608 2.48776L11.5594 2.48633L11.5579 2.4849L11.5565 2.48346L11.555 2.48202L11.5536 2.48058L11.5522 2.47914L11.5507 2.47769L11.5493 2.47624L11.5478 2.47479L11.5464 2.47333L11.5449 2.47187L11.5434 2.47041L11.542 2.46894L11.5405 2.46747L11.539 2.466L11.5375 2.46453L11.5361 2.46305L11.5346 2.46157L11.5331 2.46008L11.5316 2.45859L11.5301 2.4571L11.5286 2.45561L11.5271 2.45411L11.5256 2.45261L11.5241 2.45111L11.5226 2.4496L11.5211 2.44809L11.5196 2.44658L11.5181 2.44506L11.5166 2.44354L11.515 2.44202L11.5135 2.44049L11.512 2.43896L11.5105 2.43743L11.5089 2.4359L11.5074 2.43436L11.5058 2.43282L11.5043 2.43127L11.5028 2.42973L11.5012 2.42817L11.4996 2.42662L11.4981 2.42506L11.4965 2.42351L11.495 2.42194L11.4934 2.42038L11.4918 2.41881L11.4903 2.41723L11.4887 2.41566L11.4871 2.41408L11.4855 2.4125L11.4839 2.41091L11.4823 2.40932L11.4808 2.40773L11.4792 2.40614L11.4776 2.40454L11.476 2.40294C11.2483 2.17528 10.7765 2.03672 10 2.03672C9.25808 2.03672 8.6323 2.29467 8.11388 2.8131C7.63073 3.29624 7.36245 3.87288 7.30722 4.54922H12.6928C12.6375 3.87288 12.3693 3.29624 11.8861 2.8131ZM15 19.5492C15.49 19.5492 15.898 19.4092 16.2329 19.1341C16.5644 18.8618 16.7377 18.5321 16.7636 18.1389L15.6444 5.94297H14.0953V7.47266C14.0953 7.66601 14.0293 7.83521 13.8951 7.96935C13.761 8.10348 13.5918 8.16953 13.3984 8.16953C13.2051 8.16953 13.0359 8.10348 12.9017 7.96935C12.7676 7.83521 12.7016 7.66601 12.7016 7.47266V5.94297H7.29844V7.47266C7.29844 7.66601 7.23239 7.83521 7.09825 7.96935C6.96412 8.10348 6.79492 8.16953 6.60156 8.16953C6.40821 8.16953 6.23901 8.10348 6.10487 7.96935C5.97074 7.83521 5.90469 7.66601 5.90469 7.47266V5.94297H4.31698L3.23635 18.1387C3.26224 18.532 3.43552 18.8617 3.76709 19.1341C4.102 19.4092 4.51004 19.5492 5 19.5492H15Z" fill="#2C2C2C" stroke="#2C2C2C" stroke-width="0.3"></path></g><defs><clipPath id="clip0_158_8681"><rect width="20" height="21" fill="white" transform="matrix(1 0 0 -1 0 21)"></rect></clipPath></defs></svg>