<svg xmlns="http://www.w3.org/2000/svg" width="16" height="16" viewBox="0 0 16 16" fill="none"><g clip-path="url(#clip0_260_9992)"><path d="M7.99967 10C9.10424 10 9.99967 9.10461 9.99967 8.00004C9.99967 6.89547 9.10424 6.00004 7.99967 6.00004C6.89511 6.00004 5.99967 6.89547 5.99967 8.00004C5.99967 9.10461 6.89511 10 7.99967 10Z" stroke="white" stroke-width="1.4" stroke-linecap="round" stroke-linejoin="round"></path><path d="M12.4845 9.81822C12.4038 10.001 12.3798 10.2038 12.4154 10.4004C12.4511 10.597 12.5448 10.7784 12.6845 10.9213L12.7209 10.9576C12.8336 11.0702 12.923 11.2039 12.984 11.351C13.045 11.4982 13.0764 11.6559 13.0764 11.8152C13.0764 11.9745 13.045 12.1322 12.984 12.2794C12.923 12.4265 12.8336 12.5602 12.7209 12.6728C12.6083 12.7855 12.4746 12.8749 12.3275 12.9359C12.1803 12.9969 12.0226 13.0283 11.8633 13.0283C11.704 13.0283 11.5463 12.9969 11.3991 12.9359C11.252 12.8749 11.1183 12.7855 11.0057 12.6728L10.9694 12.6364C10.8265 12.4967 10.6451 12.403 10.4485 12.3673C10.2519 12.3317 10.0491 12.3557 9.86634 12.4364C9.68709 12.5132 9.53421 12.6408 9.42653 12.8034C9.31885 12.966 9.26106 13.1565 9.26028 13.3516V13.4546C9.26028 13.7761 9.13258 14.0844 8.90526 14.3117C8.67794 14.539 8.36963 14.6667 8.04816 14.6667C7.72668 14.6667 7.41838 14.539 7.19106 14.3117C6.96374 14.0844 6.83604 13.7761 6.83604 13.4546V13.4C6.83135 13.1994 6.76641 13.0049 6.64968 12.8417C6.53295 12.6785 6.36982 12.5542 6.18149 12.4849C5.9987 12.4042 5.79592 12.3801 5.59932 12.4158C5.40271 12.4514 5.2213 12.5452 5.07846 12.6849L5.0421 12.7213C4.92953 12.834 4.79584 12.9234 4.64869 12.9844C4.50154 13.0454 4.34381 13.0768 4.18452 13.0768C4.02523 13.0768 3.8675 13.0454 3.72035 12.9844C3.5732 12.9234 3.43952 12.834 3.32695 12.7213C3.21425 12.6087 3.12484 12.475 3.06384 12.3278C3.00285 12.1807 2.97145 12.023 2.97145 11.8637C2.97145 11.7044 3.00285 11.5467 3.06384 11.3995C3.12484 11.2524 3.21425 11.1187 3.32695 11.0061L3.36331 10.9697C3.50303 10.8269 3.59676 10.6455 3.6324 10.4489C3.66805 10.2523 3.64399 10.0495 3.56331 9.86671C3.48648 9.68745 3.35892 9.53458 3.19632 9.42689C3.03372 9.31921 2.84318 9.26142 2.64816 9.26065H2.54513C2.22365 9.26065 1.91535 9.13294 1.68803 8.90562C1.46071 8.67831 1.33301 8.37 1.33301 8.04853C1.33301 7.72705 1.46071 7.41874 1.68803 7.19143C1.91535 6.96411 2.22365 6.8364 2.54513 6.8364H2.59967C2.80028 6.83171 2.99483 6.76678 3.15804 6.65005C3.32125 6.53332 3.44556 6.37018 3.51483 6.18186C3.5955 5.99906 3.61957 5.79629 3.58392 5.59968C3.54827 5.40308 3.45455 5.22166 3.31483 5.07883L3.27846 5.04247C3.16576 4.92989 3.07636 4.79621 3.01536 4.64906C2.95436 4.50191 2.92296 4.34418 2.92296 4.18489C2.92296 4.0256 2.95436 3.86787 3.01536 3.72072C3.07636 3.57357 3.16576 3.43989 3.27846 3.32731C3.39104 3.21461 3.52472 3.12521 3.67187 3.06421C3.81902 3.00321 3.97675 2.97181 4.13604 2.97181C4.29533 2.97181 4.45306 3.00321 4.60021 3.06421C4.74736 3.12521 4.88104 3.21461 4.99361 3.32731L5.02998 3.36368C5.17281 3.5034 5.35423 3.59712 5.55083 3.63277C5.74744 3.66842 5.95021 3.64435 6.13301 3.56368H6.18149C6.36075 3.48685 6.51362 3.35929 6.62131 3.19669C6.72899 3.03409 6.78678 2.84355 6.78755 2.64853V2.5455C6.78755 2.22402 6.91526 1.91571 7.14258 1.6884C7.36989 1.46108 7.6782 1.33337 7.99967 1.33337C8.32115 1.33337 8.62946 1.46108 8.85677 1.6884C9.08409 1.91571 9.2118 2.22402 9.2118 2.5455V2.60004C9.21257 2.79506 9.27036 2.9856 9.37804 3.1482C9.48573 3.3108 9.6386 3.43837 9.81786 3.51519C10.0007 3.59587 10.2034 3.61993 10.4 3.58429C10.5966 3.54864 10.7781 3.45491 10.9209 3.31519L10.9573 3.27883C11.0698 3.16613 11.2035 3.07673 11.3507 3.01573C11.4978 2.95473 11.6555 2.92333 11.8148 2.92333C11.9741 2.92333 12.1318 2.95473 12.279 3.01573C12.4261 3.07673 12.5598 3.16613 12.6724 3.27883C12.7851 3.3914 12.8745 3.52509 12.9355 3.67223C12.9965 3.81938 13.0279 3.97711 13.0279 4.1364C13.0279 4.2957 12.9965 4.45343 12.9355 4.60057C12.8745 4.74772 12.7851 4.88141 12.6724 4.99398L12.636 5.03034C12.4963 5.17318 12.4026 5.3546 12.3669 5.5512C12.3313 5.7478 12.3554 5.95058 12.436 6.13337V6.18186C12.5129 6.36111 12.6404 6.51399 12.803 6.62167C12.9656 6.72936 13.1562 6.78714 13.3512 6.78792H13.4542C13.7757 6.78792 14.084 6.91563 14.3113 7.14294C14.5386 7.37026 14.6663 7.67857 14.6663 8.00004C14.6663 8.32152 14.5386 8.62982 14.3113 8.85714C14.084 9.08446 13.7757 9.21216 13.4542 9.21216H13.3997C13.2047 9.21294 13.0141 9.27073 12.8515 9.37841C12.6889 9.48609 12.5613 9.63897 12.4845 9.81822Z" stroke="white" stroke-width="1.4" stroke-linecap="round" stroke-linejoin="round"></path></g><defs><clipPath id="clip0_260_9992"><rect width="16" height="16" fill="white"></rect></clipPath></defs></svg>