<svg xmlns="http://www.w3.org/2000/svg" width="24" height="25" viewBox="0 0 24 25" fill="none"><path d="M16.0004 9.41016V6.41016C16.0004 4.20102 14.2095 2.41016 12.0004 2.41016C9.79123 2.41016 8.00037 4.20102 8.00037 6.41016V9.41015M3.59237 10.7621L2.99237 17.1621C2.82178 18.9818 2.73648 19.8917 3.03842 20.5944C3.30367 21.2118 3.76849 21.7222 4.35839 22.0439C5.0299 22.4102 5.94374 22.4102 7.77142 22.4102H16.2293C18.057 22.4102 18.9708 22.4102 19.6423 22.0439C20.2322 21.7222 20.6971 21.2118 20.9623 20.5944C21.2643 19.8917 21.179 18.9818 21.0084 17.1621L20.4084 10.7621C20.2643 9.2255 20.1923 8.45719 19.8467 7.87632C19.5424 7.36474 19.0927 6.95527 18.555 6.7C17.9444 6.41016 17.1727 6.41016 15.6293 6.41016L8.37142 6.41016C6.82806 6.41016 6.05638 6.41016 5.44579 6.7C4.90803 6.95527 4.45838 7.36474 4.15403 7.87632C3.80846 8.45719 3.73643 9.2255 3.59237 10.7621Z" stroke="#2C2C2C" stroke-width="2" stroke-linecap="round" stroke-linejoin="round"></path></svg>