<svg xmlns="http://www.w3.org/2000/svg" width="144" height="144" viewBox="0 0 144 144" fill="none"><path d="M88.5793 93H48L33 36H113.364C119.968 36 123.27 36 124.992 38.3704C126.715 40.7408 125.999 44.2987 124.566 51.4145C119.818 75 129 90 88.5793 93Z" fill="#7E7E7E" fill-opacity="0.2"></path><circle cx="36" cy="120" r="12" fill="white"></circle><circle cx="102" cy="120" r="12" fill="white"></circle><path d="M48 96L100.321 91.6399C116.691 90.2757 120.367 86.7002 122.181 70.3732L126 36" stroke="#7E7E7E" stroke-width="2" stroke-linecap="round"></path><path d="M36 36H48M132 36L111 36" stroke="#7E7E7E" stroke-width="2" stroke-linecap="round"></path><path d="M63 18L81 36M81 36L99 54M81 36L63 54M81 36L99 18" stroke="#7E7E7E" stroke-width="2" stroke-linecap="round"></path><circle cx="36" cy="120" r="12" stroke="#7E7E7E" stroke-width="2"></circle><circle cx="102" cy="120" r="12" stroke="#7E7E7E" stroke-width="2"></circle><path d="M48 120L90 120" stroke="#7E7E7E" stroke-width="2" stroke-linecap="round"></path><path d="M12 12H17.796C23.4641 12 28.4048 15.7476 29.7796 21.0896L47.6311 90.4589C48.5332 93.9645 47.7612 97.6785 45.5294 100.569L39.7928 108" stroke="#7E7E7E" stroke-width="2" stroke-linecap="round"></path></svg>