<svg xmlns="http://www.w3.org/2000/svg" width="18" height="18" viewBox="0 0 18 18" fill="none"><path d="M12.0003 6.75V4.5C12.0003 2.84315 10.6571 1.5 9.00028 1.5C7.34342 1.5 6.00028 2.84315 6.00028 4.5V6.75M2.69428 7.76397L2.24428 12.564C2.11633 13.9287 2.05236 14.6111 2.27881 15.1382C2.47775 15.6012 2.82637 15.984 3.26879 16.2253C3.77242 16.5 4.4578 16.5 5.82856 16.5H12.172C13.5428 16.5 14.2281 16.5 14.7318 16.2253C15.1742 15.984 15.5228 15.6012 15.7217 15.1382C15.9482 14.6111 15.8842 13.9287 15.7563 12.564L15.3063 7.76397C15.1982 6.61151 15.1442 6.03528 14.885 5.59962C14.6568 5.21594 14.3195 4.90883 13.9162 4.71738C13.4583 4.5 12.8795 4.5 11.722 4.5L6.27856 4.5C5.12104 4.5 4.54229 4.5 4.08434 4.71738C3.68103 4.90883 3.34378 5.21594 3.11552 5.59962C2.85634 6.03528 2.80232 6.61151 2.69428 7.76397Z" stroke="#157FFF" stroke-width="1.5" stroke-linecap="round" stroke-linejoin="round"></path></svg>