<svg xmlns="http://www.w3.org/2000/svg" xmlns:xlink="http://www.w3.org/1999/xlink" viewBox="0 0 100 100" preserveAspectRatio="xMidYMid" width="200" height="200" style="shape-rendering: auto; display: block; background: rgb(255, 255, 255);"><g><g transform="rotate(0 50 50)"><rect fill="#1e00ae" height="12" width="6" ry="6" rx="3" y="24" x="47"></rect></g><g transform="rotate(30 50 50)"><rect fill="#1e00ae" height="12" width="6" ry="6" rx="3" y="24" x="47"></rect></g><g transform="rotate(60 50 50)"><rect fill="#1e00ae" height="12" width="6" ry="6" rx="3" y="24" x="47"></rect></g><g transform="rotate(90 50 50)"><rect fill="#1e00ae" height="12" width="6" ry="6" rx="3" y="24" x="47"></rect></g><g transform="rotate(120 50 50)"><rect fill="#1e00ae" height="12" width="6" ry="6" rx="3" y="24" x="47"></rect></g><g transform="rotate(150 50 50)"><rect fill="#1e00ae" height="12" width="6" ry="6" rx="3" y="24" x="47"></rect></g><g transform="rotate(180 50 50)"><rect fill="#1e00ae" height="12" width="6" ry="6" rx="3" y="24" x="47"></rect></g><g transform="rotate(210 50 50)"><rect fill="#1e00ae" height="12" width="6" ry="6" rx="3" y="24" x="47"></rect></g><g transform="rotate(240 50 50)"><rect fill="#1e00ae" height="12" width="6" ry="6" rx="3" y="24" x="47"></rect></g><g transform="rotate(270 50 50)"><rect fill="#1e00ae" height="12" width="6" ry="6" rx="3" y="24" x="47"></rect></g><g transform="rotate(300 50 50)"><rect fill="#1e00ae" height="12" width="6" ry="6" rx="3" y="24" x="47"></rect></g><g transform="rotate(330 50 50)"><rect fill="#1e00ae" height="12" width="6" ry="6" rx="3" y="24" x="47"></rect></g><g></g></g></svg>