<svg xmlns="http://www.w3.org/2000/svg" width="37" height="37" viewBox="0 0 37 37" fill="none"><path d="M7.27148 36.1616C7.27148 34.919 7.27148 33.7184 7.27148 32.5109C7.27148 31.7526 7.26448 30.9874 7.27148 30.2291C7.27148 30.0396 7.22944 29.8851 7.06829 29.7728C6.40965 29.3094 5.82107 28.7618 5.27454 28.1721C3.41774 26.1852 2.05141 23.9245 1.29467 21.2918C0.769162 19.4594 0.64304 17.5919 0.776169 15.7244C0.937326 13.5409 1.60998 11.4909 2.70304 9.58126C3.36168 8.42987 4.14645 7.39783 5.04332 6.42195C6.73196 4.57551 8.75693 3.24859 11.0271 2.24463C12.0641 1.78829 13.1362 1.45129 14.2363 1.20557C15.1892 0.994949 16.1491 0.861556 17.1231 0.784328C17.7747 0.735183 18.4263 0.714121 19.078 0.735183C20.129 0.763266 21.18 0.889639 22.217 1.09324C23.8846 1.42321 25.4962 1.96381 27.0027 2.75012C28.2219 3.38199 29.357 4.14022 30.408 5.03887C31.7463 6.18324 32.8814 7.48207 33.8133 8.97046C34.8293 10.5922 35.5019 12.3544 35.8733 14.236C36.1185 15.5138 36.2096 16.7985 36.1395 18.0903C36.0555 19.5787 35.7402 21.039 35.2217 22.4362C34.7032 23.8403 34.0025 25.1461 33.1056 26.3537C32.0476 27.7859 30.7934 29.0216 29.3499 30.0677C27.1008 31.6965 24.6063 32.7215 21.8807 33.234C20.2691 33.5359 18.6365 33.564 17.018 33.4938C15.8758 33.4376 14.7407 33.248 13.6337 32.9251C13.4725 32.8759 13.3394 32.89 13.1992 32.9672C11.8539 33.6974 10.5086 34.4345 9.15632 35.1647C8.54672 35.5017 7.93713 35.8106 7.27148 36.1616ZM8.98815 21.8675C9.96911 21.8675 10.9501 21.8745 11.931 21.8675C12.5126 21.8605 12.919 21.4462 12.947 20.8776C12.968 20.4142 12.6037 19.9649 12.1622 19.9087C11.7909 19.8596 11.4265 19.8315 11.0482 19.8385C10.1163 19.8455 9.18434 19.8455 8.24543 19.8385C8.16135 19.8385 8.04223 19.8806 7.99319 19.7753C7.94414 19.67 8.04223 19.6068 8.09829 19.5366C9.1423 18.2097 10.1863 16.8898 11.2233 15.5559C11.7138 14.924 12.2533 14.3273 12.5756 13.576C12.8279 12.9793 12.5686 12.3895 11.945 12.2351C11.6998 12.1719 11.4405 12.1368 11.1883 12.1368C9.57673 12.1298 7.96516 12.1368 6.35359 12.1298C6.12937 12.1298 5.91216 12.1789 5.70196 12.2281C5.23951 12.3474 4.99427 12.7265 5.0223 13.1969C5.05032 13.5901 5.37264 13.9552 5.76502 14.0113C6.07332 14.0534 6.38863 14.0815 6.70393 14.0886C7.55876 14.0956 8.40659 14.0886 9.26142 14.0956C9.35951 14.0956 9.49264 14.0464 9.5487 14.1588C9.61877 14.2781 9.51366 14.3834 9.4436 14.4677C8.71489 15.3944 7.98618 16.3071 7.25747 17.2338C6.54278 18.1465 5.79305 19.0381 5.12039 19.993C4.84012 20.3931 4.76305 20.8354 5.00128 21.2777C5.23951 21.7271 5.65992 21.8815 6.14339 21.8885C7.09631 21.8675 8.04223 21.8675 8.98815 21.8675ZM20.4443 18.2659C20.4443 17.4023 20.4443 16.5388 20.4443 15.6682C20.4443 15.1346 20.178 14.7274 19.7366 14.566C19.2742 14.3975 18.7977 14.5309 18.4684 14.9521C18.3282 15.1346 18.2371 15.1066 18.076 14.9802C17.7467 14.7204 17.3683 14.5309 16.9619 14.4185C15.4905 14.0183 13.7318 15.2119 13.1712 16.5247C12.8069 17.3813 12.8209 18.2518 12.975 19.1364C13.1502 20.0912 13.5356 20.9408 14.3834 21.4954C15.4835 22.2115 16.7937 22.4572 17.9849 21.5375C18.2161 21.362 18.3773 21.4252 18.5595 21.6077C18.9659 22.0219 19.2812 22.0781 19.7857 21.8675C20.2481 21.6709 20.4513 21.3058 20.4443 20.8144C20.4443 19.9719 20.4443 19.1224 20.4443 18.2659ZM32.0756 18.2027C32.1246 18.0061 32.0406 17.7463 31.9985 17.4795C31.7953 16.3071 31.1927 15.4014 30.1347 14.8398C29.378 14.4396 28.5652 14.3062 27.7033 14.4185C26.7855 14.5379 26.0147 14.917 25.4191 15.6261C24.7395 16.4405 24.5012 17.3953 24.4942 18.4484C24.4872 20.9618 26.7574 22.6187 29.1888 22.036C31.0946 21.5796 32.0195 20.1193 32.0756 18.2027ZM21.4883 16.5949C21.4953 16.5949 21.4953 16.5949 21.4883 16.5949C21.4883 18.0342 21.4883 19.4734 21.4883 20.9056C21.4883 21.2637 21.6284 21.5656 21.9087 21.7903C22.245 22.057 22.6164 22.0641 22.9948 21.8815C23.4222 21.6709 23.6604 21.3199 23.6604 20.8495C23.6744 18.0342 23.6674 15.2189 23.6604 12.3966C23.6604 12.1228 23.5763 11.8419 23.3661 11.6313C23.0228 11.2873 22.6024 11.2452 22.168 11.3856C21.7195 11.533 21.4883 11.8911 21.4883 12.3825C21.4883 13.7937 21.4883 15.1978 21.4883 16.5949Z" fill="white"></path></svg>