<svg xmlns="http://www.w3.org/2000/svg" width="19" height="20" viewBox="0 0 19 20" fill="none"><path d="M2.42188 13.3203C2.42188 13.3203 2.82552 12.9753 3.63281 12.2852C4.4401 11.5951 6.34115 11.25 9.33594 11.25C12.3307 11.25 14.6354 11.9401 16.25 13.3203C17.8646 14.7005 18.6719 16.6797 18.6719 19.2578C18.6719 19.4661 18.6003 19.6419 18.457 19.7852C18.3138 19.9284 18.138 20 17.9297 20H0.742188C0.611979 20 0.488281 19.9674 0.371094 19.9023C0.253906 19.8372 0.16276 19.7461 0.0976562 19.6289C0.0325521 19.5117 0 19.388 0 19.2578C0 16.6797 0.807292 14.7005 2.42188 13.3203ZM1.48438 18.5547H17.1875C16.875 14.6745 14.2578 12.7344 9.33594 12.7344C4.41406 12.7344 1.79688 14.6745 1.48438 18.5547ZM9.33594 0C10.2474 0 11.0742 0.214844 11.8164 0.644531C12.5586 1.07422 13.138 1.66667 13.5547 2.42188C13.9714 3.17708 14.1797 4.01042 14.1797 4.92188C14.1797 6.38021 13.7044 7.6237 12.7539 8.65234C11.8034 9.68099 10.6641 10.1953 9.33594 10.1953C8.00781 10.1953 6.86849 9.68099 5.91797 8.65234C4.96745 7.6237 4.49219 6.38021 4.49219 4.92188C4.49219 3.51562 4.95443 2.34375 5.87891 1.40625C6.80339 0.46875 7.95573 0 9.33594 0ZM6.93359 7.63672C6.93359 7.63672 7.09961 7.82227 7.43164 8.19336C7.76367 8.56445 8.39844 8.75 9.33594 8.75C10.2734 8.75 11.0742 8.37891 11.7383 7.63672C12.4023 6.89453 12.7344 5.98958 12.7344 4.92188C12.7344 3.93229 12.4089 3.10547 11.7578 2.44141C11.1068 1.77734 10.2995 1.44531 9.33594 1.44531C8.34635 1.44531 7.53255 1.77734 6.89453 2.44141C6.25651 3.10547 5.9375 3.93229 5.9375 4.92188C5.9375 5.98958 6.26953 6.89453 6.93359 7.63672Z" fill="#2C2C2C"></path></svg>