<svg xmlns="http://www.w3.org/2000/svg" width="16" height="16" viewBox="0 0 16 16" fill="none"><path d="M2.31758 2.54254C2.31758 2.54254 2.64655 2.21357 3.3045 1.55562C3.96244 0.897681 5.2235 0.568709 7.08768 0.568709C8.95185 0.568709 10.5419 1.22665 11.8578 2.54254C13.1737 3.85843 13.8316 5.44846 13.8316 7.31263C13.8316 9.17681 13.1737 10.7668 11.8578 12.0827C10.5419 13.3986 8.95185 14.0566 7.08768 14.0566C5.2235 14.0566 3.63347 13.3986 2.31758 12.0827C1.00169 10.7668 0.34375 9.17681 0.34375 7.31263C0.34375 5.44846 1.00169 3.85843 2.31758 2.54254ZM7.07272 12.8005C8.06961 12.8005 8.99172 12.5562 9.83908 12.0678C10.6864 11.5793 11.3543 10.9114 11.8428 10.064C12.3313 9.21668 12.5755 8.29457 12.5755 7.29768C12.5755 5.78242 12.0422 4.49145 10.9755 3.42478C9.90886 2.35812 8.61291 1.82478 7.08768 1.82478C5.56244 1.82478 4.26649 2.35812 3.19982 3.42478C2.13316 4.49145 1.59982 5.7874 1.59982 7.31263C1.59982 8.83787 2.13316 10.1338 3.19982 11.2005C4.26649 12.2672 5.55746 12.8005 7.07272 12.8005ZM15.4765 14.8042C15.5961 14.9438 15.6559 15.0983 15.6559 15.2678C15.6559 15.4372 15.5961 15.5818 15.4765 15.7014C15.3568 15.821 15.2123 15.8809 15.0428 15.8809C14.8733 15.8809 14.7188 15.821 14.5793 15.7014L11.0204 12.1425C10.9008 12.003 10.8409 11.8485 10.8409 11.679C10.8409 11.5095 10.9008 11.365 11.0204 11.2453C11.14 11.1257 11.2846 11.0659 11.454 11.0659C11.6235 11.0659 11.778 11.1257 11.9176 11.2453L15.4765 14.8042Z" fill="white"></path></svg>