<svg xmlns="http://www.w3.org/2000/svg" width="13" height="13" viewBox="0 0 13 13" fill="none"><g clip-path="url(#clip0_153_5602)"><path d="M6.5 0.265625C5.60286 0.265625 4.76074 0.439128 3.97363 0.786133C3.18652 1.12467 2.49886 1.58805 1.91064 2.17627C1.32243 2.76449 0.854818 3.45638 0.507812 4.25195C0.169271 5.03906 0 5.87695 0 6.76562C0 7.66276 0.169271 8.50488 0.507812 9.29199C0.854818 10.0791 1.32243 10.7689 1.91064 11.3613C2.49886 11.9538 3.18652 12.4193 3.97363 12.7578C4.76074 13.0964 5.60286 13.2656 6.5 13.2656C7.39714 13.2656 8.23926 13.0964 9.02637 12.7578C9.81348 12.4193 10.5011 11.9538 11.0894 11.3613C11.6776 10.7689 12.1452 10.0791 12.4922 9.29199C12.8307 8.50488 13 7.66276 13 6.76562C13 5.87695 12.8307 5.03906 12.4922 4.25195C12.1452 3.45638 11.6776 2.76449 11.0894 2.17627C10.5011 1.58805 9.81348 1.12467 9.02637 0.786133C8.23926 0.439128 7.39714 0.265625 6.5 0.265625ZM6.5 12.4023C5.72982 12.4023 5.00195 12.2542 4.31641 11.958C3.63086 11.6618 3.03418 11.2576 2.52637 10.7456C2.01855 10.2336 1.6123 9.63477 1.30762 8.94922C1.01139 8.27214 0.863281 7.54427 0.863281 6.76562C0.863281 5.99544 1.01139 5.26758 1.30762 4.58203C1.6123 3.90495 2.01855 3.31038 2.52637 2.79834C3.03418 2.2863 3.63086 1.88216 4.31641 1.58594C5.00195 1.28971 5.72982 1.1416 6.5 1.1416C7.27018 1.1416 7.99805 1.28971 8.68359 1.58594C9.36914 1.88216 9.96582 2.2863 10.4736 2.79834C10.9814 3.31038 11.3877 3.90495 11.6924 4.58203C11.9886 5.26758 12.1367 5.99544 12.1367 6.76562C12.1367 7.54427 11.9886 8.27214 11.6924 8.94922C11.3877 9.63477 10.9814 10.2336 10.4736 10.7456C9.96582 11.2576 9.36914 11.6618 8.68359 11.958C7.99805 12.2542 7.27018 12.4023 6.5 12.4023ZM9.4834 6.49902H6.83008V3.24902C6.83008 3.11361 6.78353 3.00781 6.69043 2.93164C6.59733 2.85547 6.49577 2.81738 6.38574 2.81738C6.28418 2.81738 6.17839 2.85547 6.06836 2.93164C5.95833 3.00781 5.90332 3.11361 5.90332 3.24902V7.3623H9.41992C9.55534 7.3623 9.66325 7.31787 9.74365 7.229C9.82406 7.14014 9.86426 7.04069 9.86426 6.93066C9.86426 6.82064 9.82617 6.72119 9.75 6.63232C9.67383 6.54346 9.58496 6.49902 9.4834 6.49902Z" fill="#7E7E7E"></path></g><defs><clipPath id="clip0_153_5602"><rect width="13" height="13" fill="white" transform="matrix(1 0 0 -1 0 13)"></rect></clipPath></defs></svg>